<?xml version="1.0" encoding="utf-8"?>
<!-- Generator: Adobe Illustrator 21.0.0, SVG Export Plug-In . SVG Version: 6.00 Build 0)  -->
<svg version="1.1" id="Слой_1" xmlns="http://www.w3.org/2000/svg" xmlns:xlink="http://www.w3.org/1999/xlink" x="0px" y="0px"
	 viewBox="0 0 44 44.2" style="enable-background:new 0 0 44 44.2;" xml:space="preserve">
<style type="text/css">
	.st0{fill:#FFFFFF;}
</style>
<path class="st0" d="M38.9,13.3c-1.9-1.9-3.7-3.7-5.6-5.6c-1-1-2-2-2.8-2.8L34,1.2L32.8,0l-4.3,4.3L14.8,7.4h-0.1h-0.1h-0.1
	l-0.1,0.1l0,0.1h-0.1L4,18l1.3,1.3c0.8,0.8,1.9,1.3,2.9,1.4L1,28.1c-1.3,1.3-1.3,3.5,0,4.8l0.2,0.2c0.4,0.4,0.8,0.6,1.2,0.8
	l-0.6,0.6c-1.3,1.3-1.3,3.5,0,4.8L2,39.5c0.6,0.6,1.5,1,2.4,1s1.7-0.4,2.4-1L7,39.3c0.2,0.4,0.4,0.9,0.8,1.2l0.2,0.2
	c0.6,0.6,1.5,1,2.4,1c0.9,0,1.8-0.4,2.4-1l0.4-0.4c0.2,0.4,0.4,0.9,0.8,1.2l0.2,0.2c0.6,0.6,1.5,1,2.4,1l0,0c0.9,0,1.8-0.4,2.4-1
	l2.8-2.8l0,0l0.1-0.1l1.1,1.1c0.1,0.1,0.1,0.1,0.2,0.2h0.1l0,0c0.3,0.2,1.2,0.4,3.7,1.1l3,3l0.5-0.5l0.5-0.5l-2-2
	c1.2-1.2,2.3-2.4,3.5-3.5c0.5-0.5,1-1,1.5-1.5l2,2l0.5-0.5l0.5-0.5l-2.6-2.6l-1.5-6.7l4.1-4.1l0,0l0.2-0.2c0.1-0.1,0.2-0.2,0.2-0.4
	c0.3-0.4,0.7-1.8,1.9-6.6c0.1-0.3,0.1-0.4,0.2-0.7c0-0.1,0-0.2,0.1-0.3h0.1c0.1-0.1,0.1-0.2,0.2-0.4l4.1-4.1l-1.2-1.2L38.9,13.3z
	 M11.2,39.3c-0.5,0.5-1.5,0.5-2,0l-0.1-0.2c-0.5-0.5-0.5-1.5,0-2l1.7-1.7l3.8-3.8l2.1,2.1L11.2,39.3z M17.4,40.2
	c-0.3,0.3-0.6,0.4-1,0.4c-0.4,0-0.7-0.2-1-0.4l-0.2-0.2c-0.5-0.5-0.5-1.5,0-2l2.9-2.9l2.1,2.1L17.4,40.2z M31.4,36.1c-1,1-2,2-3,3
	c-0.1,0.1-0.3,0.3-0.4,0.4l0,0l-0.4-0.1h-0.1c-2.1-0.5-3.2-0.9-3.6-1l-4.5-4.5l-4.5-4.5l0,0c-0.3-0.3-0.3-0.7,0-0.9l0.1-0.1
	c0.3-0.3,0.7-0.3,0.9,0l2.3,2.3l0,0l1.2-1.2l-3.9-3.8c-0.3-0.3-0.3-0.7,0-0.9l0.1-0.1c0.1-0.1,0.3-0.2,0.4-0.2s0.4,0.1,0.4,0.2
	l3.9,3.9l1.2-1.2L16,22.2c-0.3-0.3-0.3-0.7,0-0.9l0.1-0.1c0.1-0.1,0.3-0.2,0.4-0.2s0.4,0.1,0.4,0.2l5.3,5.3l0,0l0.6-0.6l0.5-0.6
	l-3.6-3.6c-0.3-0.3-0.3-0.7,0-0.9l0.1-0.1c0.3-0.3,0.7-0.3,0.9,0l7.9,7.7l0.2,0.2l1-1v-0.1l-0.2-0.2l0,0l-1.7-1.9
	c-0.5-0.5-0.6-1.4-0.3-2c0.1-0.1,0.2-0.1,0.2,0l2.9,2.9c0.1,0.1,0.2,0.3,0.3,0.4l0.3,1l1.5,6.8C32.4,35.1,31.9,35.6,31.4,36.1z
	 M37.6,15c-0.1,0.3-0.1,0.4-0.2,0.7c-0.9,3.5-1.5,5.6-1.7,6.1l-3.5,3.6l-1-1l-2.9-2.9c-0.3-0.3-0.6-0.3-0.8,0L26.9,22
	c-0.4,0.4-0.7,1-0.9,1.5l-4-4c-0.9-0.9-2.3-0.9-3.2,0l-0.1,0.1c-0.2,0.2-0.3,0.4-0.4,0.5l-0.2-0.2c-0.9-0.9-2.3-0.9-3.2,0L14.9,20
	c-0.8,0.9-0.9,2.2-0.1,3.1c-0.2,0.1-0.4,0.3-0.5,0.4l-0.1,0.1c-0.9,0.9-0.9,2.3,0,3.2l0,0c-0.2,0.1-0.4,0.3-0.5,0.4l-0.1,0.1
	c-0.4,0.4-0.6,0.9-0.6,1.4c0,0.4,0,0.6,0.2,1c0,0.2,0.1,0.3,0.2,0.4L9.4,34l-1.7,1.7l0,0L5.4,38c-0.5,0.5-1.5,0.5-2,0l-0.2-0.2
	c-0.3-0.3-0.4-0.6-0.4-1c0-0.4,0.2-0.7,0.4-1l8.5-8.5L10.2,26l-5.6,5.7c-0.5,0.5-1.5,0.5-2,0l-0.2-0.2c-0.3-0.3-0.4-0.6-0.4-1
	c0-0.4,0.2-0.7,0.4-1l10.1-10.1l0.1-0.1l5-5l0.1,0.1c1.2,1.2,2.8,2.2,4.8,2.7c0.6,0.2,1.2,0.2,1.9,0.2c1.3,0,2.5-0.4,3.4-0.9
	c0.4-0.3,0.6-0.8,0.4-1.3c-0.3-0.5-1-0.7-1.5-0.4c-0.8,0.5-2.2,0.7-3.7,0.4c-1.6-0.4-2.9-1.1-3.7-2.1c-0.2-0.2-0.4-0.4-0.5-0.7
	c-0.3-0.4-0.9-0.6-1.3-0.4l0,0L17.1,12c-0.1,0.1-0.2,0.2-0.3,0.3l-5.8,5.8c-1.2,1.2-3.1,1.2-4.4,0l8.7-8.7l13.5-3c1,1,2,2,2.8,2.9
	c1.9,1.9,3.7,3.7,5.6,5.6l0.1-0.1L37.6,15C37.6,15,37.6,15,37.6,15z"/>
</svg>
